<svg xmlns="http://www.w3.org/2000/svg" xmlns:xlink="http://www.w3.org/1999/xlink" version="1.1" x="0px" y="0px" viewBox="0 0 53 66.25" enable-background="new 0 0 53 53" xml:space="preserve"><g><path d="M2.49951,50.05616h4.54297c2.1073,0,3.86719-1.46747,4.33447-3.42871l13.46143,4.59082   c0.53613,0.18701,1.0957,0.28174,1.66406,0.28174c0.89746,0,1.78418-0.23926,2.56445-0.69238l20.35645-11.84375   c3.41943-1.8335,2.3916-7.04987-1.52051-7.41064c0.10986-0.24847,0.22144-0.49561,0.31738-0.75781   c1.55396-0.53546,3.28027-0.3324,3.28027-1.59082v-5.01025c0-0.46045-0.31445-0.86133-0.76074-0.97119l-2.52246-0.62012   c-0.13477-0.36523-0.2832-0.72021-0.44531-1.06201l1.34277-2.20703c0.23926-0.39355,0.17871-0.89941-0.14648-1.22559   l-3.53906-3.5498c-0.32422-0.32617-0.83105-0.3877-1.22461-0.1499l-2.22754,1.34424   c-0.34766-0.16504-0.69727-0.31104-1.05469-0.44092l-0.61035-2.51318c-0.1084-0.44824-0.50977-0.76416-0.97168-0.76416h-5.00977   c-0.45898,0-0.85938,0.3125-0.9707,0.7583l-0.62695,2.51904c-0.36719,0.13281-0.7207,0.27979-1.05957,0.44043l-2.22559-1.34375   c-1.15417-0.69739-1.72034,0.95734-4.76465,3.69971c-0.3252,0.32568-0.38574,0.83105-0.14746,1.22412l1.3418,2.21484   c-0.16211,0.3418-0.30957,0.69482-0.44043,1.05713c-1.63513,0.5636-3.27637,0.33136-3.27637,1.58984v5.01025   c0,0.46045,0.31445,0.86133,0.76074,0.97119l2.51563,0.61865c0.13086,0.36182,0.27832,0.7168,0.44141,1.06299l-0.59814,0.98291   h-1.15576c-1.66309,0-3.25195-0.78564-4.25195-2.10498c-1.38281-1.81055-3.56738-2.89111-5.84277-2.89111h-2.90332   c-0.69238-1.56738-2.25952-2.66699-4.08398-2.66699H2.49951c-0.55273,0-1,0.44775-1,1v22.87891   C1.49951,49.60841,1.94678,50.05616,2.49951,50.05616z M24.16064,28.42091v-3.44287   c1.80054-0.5603,2.73364-0.35864,3.00488-1.23877c0.5603-1.8089,1.16113-2.00934,0.71094-2.75293l-1.22461-2.02051l2.43359-2.43994   c1.68909,0.88379,2.20581,1.69116,3.02051,1.24805c0.5332-0.28809,1.12695-0.53564,1.76367-0.73535   c0.33301-0.104,0.58691-0.37402,0.67188-0.7124l0.57031-2.2915h3.44238l0.55469,2.28564   c0.08301,0.34229,0.33984,0.61572,0.67676,0.71973c0.60938,0.18848,1.1875,0.42969,1.76563,0.7373   c0.30957,0.16504,0.68652,0.15479,0.98633-0.02686l2.0293-1.22461l2.43164,2.43896l-1.22266,2.01025   c-0.18359,0.30176-0.19434,0.67773-0.02832,0.98975c0.29297,0.55029,0.5459,1.15137,0.75195,1.78711   c0.10645,0.32959,0.37598,0.58057,0.71191,0.66357l2.28906,0.5625v3.44287l-2.28906,0.5625   c-0.8385,0.20599-0.58447,0.82684-1.46094,2.44482c-0.09351,0.17291-0.12671,0.36536-0.11157,0.55481l-11.94604,4.80457   c-0.03027-2.18164-1.81055-3.94727-3.99414-3.94727h-2.07642l0.25317-0.41602c0.44409-0.7301-0.16235-0.99396-0.70996-2.76465   c-0.10352-0.33594-0.375-0.59229-0.71582-0.67627L24.16064,28.42091z M11.5083,29.84425h2.52148   c1.65625,0,3.24609,0.78711,4.25098,2.10205c2.7439,3.62103,6.85303,2.77509,7.52979,2.89404c0.00708,0-0.01172,0.00208,0.05969,0   h3.82849c2.69897,0,2.59375,3.99756,0,3.99756h-7.47266c-0.55273,0-1,0.44775-1,1s0.44727,1,1,1h7.47266   c1.14307,0,2.31128-0.4826,3.12512-1.54517l13.97546-5.62085c1.23779-0.50366,2.7002,0.40887,2.7002,1.80957   c0,2.07245-1.26953,1.48505-21.4375,13.59717c-0.77344,0.44922-1.71582,0.54688-2.57129,0.24902L11.5083,44.55934V29.84425z    M3.49951,27.17726h3.54297c1.18872,0,2.18384,0.84247,2.41504,1.95935v16.12073c0,0.1084,0.01807,0.2135,0.05078,0.31268v0.03107   c0,1.35352-1.10645,2.45508-2.46582,2.45508H3.49951V27.17726z"/><path d="M36.83154,33.80177c3.91602,0,7.10254-3.18604,7.10254-7.10205s-3.18652-7.10205-7.10254-7.10205   s-7.10156,3.18604-7.10156,7.10205S32.91553,33.80177,36.83154,33.80177z M36.83154,21.59767   c2.81348,0,5.10254,2.28857,5.10254,5.10205s-2.28906,5.10205-5.10254,5.10205s-5.10156-2.28857-5.10156-5.10205   S34.01807,21.59767,36.83154,21.59767z"/><path d="M2.25928,16.56349L4.1958,17.042c0.08887,0.23486,0.18457,0.46338,0.28809,0.68604l-1.03906,1.70947   c-0.23926,0.39404-0.17871,0.90088,0.14746,1.22656l2.86523,2.86475c0.3252,0.3252,0.83105,0.38574,1.22363,0.14941   l1.71777-1.03564c0.21973,0.1001,0.44531,0.19385,0.67871,0.27979l0.47266,1.94287   c0.10938,0.44824,0.51074,0.76367,0.97168,0.76367h4.07031c0.46094,0,0.8623-0.31494,0.97168-0.76318l0.47266-1.93652   c0.22949-0.08594,0.45801-0.18164,0.68359-0.28613l1.71191,1.03467c0.39453,0.23682,0.90039,0.17627,1.22461-0.14893   c2.09314-2.37988,3.6925-2.9671,3.0127-4.08984l-1.03223-1.7041c0.10352-0.22461,0.2002-0.45605,0.28906-0.69238   c1.11426-0.4082,2.70215-0.23688,2.70215-1.44971v-4.05664c0-0.45996-0.31348-0.86084-0.76074-0.9707l-1.94336-0.47949   c-0.08789-0.23438-0.18457-0.46436-0.28809-0.68896l1.03223-1.69873c0.23926-0.39355,0.17871-0.8999-0.14648-1.22559   l-2.86426-2.87158c-0.32617-0.32617-0.83008-0.38721-1.22559-0.1499l-1.71191,1.03467   c-0.22559-0.10449-0.4541-0.2002-0.68359-0.28613l-0.47266-1.93652c-0.10938-0.44824-0.51074-0.76318-0.97168-0.76318h-4.05664   c-0.45996,0-0.86035,0.31396-0.9707,0.76025l-0.47949,1.94141c-0.23828,0.08887-0.4668,0.18311-0.68652,0.28467L7.68115,3.45069   C7.2876,3.21388,6.78174,3.27589,6.45654,3.6006L3.59131,6.47218C3.26709,6.79786,3.20557,7.30275,3.44385,7.6963l1.03418,1.71045   c-0.10156,0.21973-0.19531,0.4458-0.2832,0.68018l-1.93555,0.47852c-0.44629,0.11035-0.75977,0.51074-0.75977,0.9707v4.05664   C1.49951,16.05275,1.81299,16.45314,2.25928,16.56349z M3.49951,12.31886l1.70313-0.4209   c0.33789-0.0835,0.6084-0.33691,0.71289-0.66895c0.16211-0.51172,0.35254-0.96729,0.58301-1.39258   C6.6665,9.52443,6.65771,9.14698,6.47412,8.84327L5.56006,7.33107l1.75879-1.76318l1.51758,0.91455   c0.30469,0.18262,0.68164,0.19092,0.99219,0.02344c0.41699-0.22559,0.875-0.41602,1.40039-0.58301   c0.33203-0.10547,0.58496-0.37549,0.66797-0.71338l0.42188-1.70947h2.48828l0.41602,1.70654   c0.08398,0.34326,0.3418,0.6167,0.67969,0.71973c0.47656,0.14551,0.93262,0.33545,1.39355,0.58203   c0.31055,0.16553,0.68555,0.15576,0.98828-0.02637l1.51074-0.91309l1.75684,1.76074l-0.91113,1.49854   c-0.18359,0.30176-0.19434,0.67822-0.02832,0.98975c0.23535,0.44189,0.43555,0.91699,0.59277,1.41309   c0.26782,0.84082,1.17896,0.68188,2.42285,1.08838v2.49023l-1.70898,0.42139c-0.33887,0.0835-0.61035,0.3374-0.71484,0.67041   c-0.15723,0.49951-0.35547,0.97217-0.58887,1.4043c-0.16895,0.3125-0.15918,0.69043,0.02441,0.99365l0.91211,1.50537   l-1.75586,1.75586l-1.51172-0.91357c-0.30273-0.18213-0.67773-0.19238-0.98828-0.02637   c-0.46094,0.24658-0.91699,0.43652-1.39355,0.58203c-0.33789,0.10303-0.5957,0.37646-0.67969,0.71973l-0.41602,1.70654h-2.49902   l-0.41699-1.71289c-0.08301-0.34229-0.33984-0.61523-0.67676-0.71924c-0.50293-0.15527-0.96875-0.34814-1.38574-0.57373   c-0.31055-0.16699-0.6875-0.15918-0.99219,0.02344l-1.51758,0.91504l-1.75684-1.75635l0.91797-1.51074   c0.18457-0.3042,0.19434-0.68311,0.02441-0.99609c-0.23242-0.43018-0.43066-0.90039-0.58887-1.39844   c-0.10449-0.33203-0.375-0.58545-0.71289-0.66895l-1.70313-0.4209V12.31886z"/><path d="M13.56396,19.40528c3.2207,0,5.84082-2.62012,5.84082-5.84082s-2.62012-5.84082-5.84082-5.84082   s-5.84082,2.62012-5.84082,5.84082S10.34326,19.40528,13.56396,19.40528z M13.56396,9.72364   c2.11816,0,3.84082,1.72314,3.84082,3.84082s-1.72266,3.84082-3.84082,3.84082s-3.84082-1.72314-3.84082-3.84082   S11.4458,9.72364,13.56396,9.72364z"/></g><text x="0" y="68" fill="#000000" font-size="5px" font-weight="bold" font-family="'Helvetica Neue', Helvetica, Arial-Unicode, Arial, Sans-serif">Created by Vectors Point</text><text x="0" y="73" fill="#000000" font-size="5px" font-weight="bold" font-family="'Helvetica Neue', Helvetica, Arial-Unicode, Arial, Sans-serif">from the Noun Project</text></svg>