<svg xmlns="http://www.w3.org/2000/svg" viewBox="0 0 48 60" x="0px" y="0px"><title>callcenter_29-web-design</title><g data-name="Layer 30"><circle cx="5" cy="5" r="1"/><circle cx="8" cy="5" r="1"/><circle cx="11" cy="5" r="1"/><path d="M29,14a1,1,0,0,0,0-2H5a1,1,0,0,0-1,1V27a1,1,0,0,0,1,1H27a1,1,0,0,0,0-2H6V14Z"/><path d="M4,43a1,1,0,0,0,1,1H17a1,1,0,0,0,1-1V31a1,1,0,0,0-1-1H5a1,1,0,0,0-1,1ZM6,32H16V42H6Z"/><path d="M37,20c0-2.57-2.979-5.416-3.319-5.732a1,1,0,0,0-1.362,0C31.979,14.584,29,17.43,29,20a3.8,3.8,0,0,0,1.525,3.309A2.984,2.984,0,0,0,30,25V45a2.966,2.966,0,0,0,.184,1H3a1,1,0,0,1-1-1V13a1,1,0,0,0-2,0V45a3,3,0,0,0,3,3H32a1,1,0,0,0,.359-.072A2.989,2.989,0,0,0,36,45V25a2.984,2.984,0,0,0-.525-1.691A3.8,3.8,0,0,0,37,20Zm-4-3.568c.856.949,2,2.468,2,3.568,0,1.383-.617,2-2,2s-2-.617-2-2C31,18.974,32.048,17.483,33,16.432ZM34,45a1,1,0,0,1-2,0V32h2Zm0-20v5H32V25a1,1,0,0,1,2,0Z"/><path d="M47,14H39a1,1,0,0,0-1,1V47a1,1,0,0,0,1,1h8a1,1,0,0,0,1-1V15A1,1,0,0,0,47,14ZM40,46V16h6v2H43a1,1,0,0,0,0,2h3v2H45a1,1,0,0,0,0,2h1v2H43a1,1,0,0,0,0,2h3v2H45a1,1,0,0,0,0,2h1v2H43a1,1,0,0,0,0,2h3v2H45a1,1,0,0,0,0,2h1v2H43a1,1,0,0,0,0,2h3v2Z"/><path d="M27,30H21a1,1,0,0,0,0,2h6a1,1,0,0,0,0-2Z"/><path d="M21,36h4a1,1,0,0,0,0-2H21a1,1,0,0,0,0,2Z"/><path d="M28,39a1,1,0,0,0-1-1H21a1,1,0,0,0,0,2h6A1,1,0,0,0,28,39Z"/><path d="M21,42a1,1,0,0,0,0,2h4a1,1,0,0,0,0-2Z"/><path d="M45,0H3A3,3,0,0,0,0,3V9a1,1,0,0,0,1,1H43a1,1,0,0,0,0-2H2V3A1,1,0,0,1,3,2H45a1,1,0,0,1,1,1v8a1,1,0,0,0,2,0V3A3,3,0,0,0,45,0Z"/></g><text x="0" y="63" fill="#000000" font-size="5px" font-weight="bold" font-family="'Helvetica Neue', Helvetica, Arial-Unicode, Arial, Sans-serif">Created by KonKapp</text><text x="0" y="68" fill="#000000" font-size="5px" font-weight="bold" font-family="'Helvetica Neue', Helvetica, Arial-Unicode, Arial, Sans-serif">from the Noun Project</text></svg>