<svg xmlns="http://www.w3.org/2000/svg" xmlns:xlink="http://www.w3.org/1999/xlink" version="1.1" x="0px" y="0px" viewBox="0 0 64 80" style="enable-background:new 0 0 64 64;" xml:space="preserve"><g><path d="M31,23c0,7.72,6.28,14,14,14s14-6.28,14-14S52.72,9,45,9S31,15.28,31,23z M45,35c-3.542,0-6.72-1.552-8.919-4h17.838   C51.72,33.448,48.542,35,45,35z M43.503,22.581C42.562,22.033,42,21.068,42,20v-2c0-0.838,0.355-1.645,0.974-2.212   c0.626-0.575,1.439-0.851,2.298-0.776C46.801,15.145,48,16.548,48,18.208V20c0,1.068-0.562,2.033-1.503,2.581L46,22.87v2.884   l4.84,1.383c0.938,0.268,1.667,0.978,1.985,1.863h-15.65c0.318-0.885,1.047-1.595,1.985-1.863L44,25.754V22.87L43.503,22.581z    M57,23c0,2.465-0.749,4.757-2.028,6.665c-0.143-2.07-1.566-3.875-3.582-4.45L48,24.246v-0.266c1.246-0.939,2-2.416,2-3.979v-1.792   c0-2.688-2.001-4.966-4.556-5.188c-1.401-0.125-2.792,0.35-3.822,1.294C40.591,15.259,40,16.603,40,18v2   c0,1.563,0.754,3.041,2,3.979v0.266l-3.39,0.969c-2.016,0.576-3.439,2.38-3.582,4.45C33.749,27.757,33,25.465,33,23   c0-6.617,5.383-12,12-12S57,16.383,57,23z"/><path d="M63,23c0-7.819-5.02-14.471-12-16.95V1H1v56h39v1c0,2.757,2.243,5,5,5s5-2.243,5-5V43h-2v-2.271   C56.499,39.294,63,31.901,63,23z M61,23c0,8.822-7.178,16-16,16s-16-7.178-16-16S36.178,7,45,7S61,14.178,61,23z M48,58   c0,1.654-1.346,3-3,3s-3-1.346-3-3v-3H3V3h46v2.464C47.711,5.17,46.376,5,45,5c-9.925,0-18,8.075-18,18   c0,8.901,6.501,16.294,15,17.729V43h-2v10h2v-8h6V58z M46,43h-2v-2.051C44.333,40.968,44.662,41,45,41s0.667-0.032,1-0.051V43z"/><path d="M16,31C9.935,31,5,35.935,5,42s4.935,11,11,11s11-4.935,11-11S22.065,31,16,31z M24.941,41H17v-7.941   C21.164,33.522,24.478,36.836,24.941,41z M7,42c0-4.624,3.507-8.441,8-8.941v17.882C10.507,50.441,7,46.624,7,42z M17,50.941V43   h7.941C24.478,47.164,21.164,50.478,17,50.941z"/><rect x="5" y="5" width="2" height="2"/><rect x="9" y="5" width="16" height="2"/><rect x="5" y="9" width="20" height="2"/><rect x="5" y="13" width="20" height="2"/><rect x="5" y="17" width="20" height="2"/><rect x="5" y="21" width="20" height="2"/><rect x="5" y="25" width="16" height="2"/><rect x="23" y="25" width="2" height="2"/><rect x="29" y="51" width="9" height="2"/><rect x="29" y="47" width="9" height="2"/><rect x="29" y="43" width="9" height="2"/></g><text x="0" y="79" fill="#000000" font-size="5px" font-weight="bold" font-family="'Helvetica Neue', Helvetica, Arial-Unicode, Arial, Sans-serif">Created by Eucalyp</text><text x="0" y="84" fill="#000000" font-size="5px" font-weight="bold" font-family="'Helvetica Neue', Helvetica, Arial-Unicode, Arial, Sans-serif">from the Noun Project</text></svg>